<svg class="vector fh" width="300px" height="300px" xmlns="http://www.w3.org/2000/svg" baseProfile="full" version="1.1" style="width: 300px; height: 300px; stroke: rgb(255, 255, 255); stroke-width: 8; fill: none; stroke-linecap: round;"><g transform="translate(0,0)"><path d="M15,15 L285,285  M60,240 A90,-90 0 0,1 150,150  M60,240 A90,-90 0 0,0 150,150  M285,285 A-225,-45 0 0,1 60,240  A-45,-225 0 0,1 15,15  "></path></g><g><path d="M15,15 L285,285  M60,240 A90,-90 0 0,1 150,150  M60,240 A90,-90 0 0,0 150,150  M285,285 A-225,-45 0 0,1 60,240  A-45,-225 0 0,1 15,15  " transform="translate(300,300),scale(-1,-1)"></path></g></svg>